<svg width="178" height="89" viewBox="0 0 178 89" fill="none" xmlns="http://www.w3.org/2000/svg">
<path d="M178 0H0V89H178V0Z" fill="white"/>
<path d="M28.62 37V25.192H30.42L32.688 31.492C32.832 31.9 32.97 32.314 33.102 32.734C33.246 33.142 33.39 33.55 33.534 33.958H33.606C33.75 33.55 33.882 33.142 34.002 32.734C34.134 32.314 34.272 31.9 34.416 31.492L36.648 25.192H38.466V37H37.062V30.502C37.062 29.974 37.086 29.392 37.134 28.756C37.182 28.12 37.224 27.538 37.26 27.01H37.188L36.252 29.692L34.02 35.812H33.03L30.798 29.692L29.862 27.01H29.79C29.826 27.538 29.862 28.12 29.898 28.756C29.946 29.392 29.97 29.974 29.97 30.502V37H28.62ZM49.4021 30.394L48.8441 32.194H52.3901L51.8321 30.394C51.6161 29.734 51.4121 29.08 51.2201 28.432C51.0281 27.772 50.8361 27.1 50.6441 26.416H50.5721C50.3921 27.1 50.2061 27.772 50.0141 28.432C49.8221 29.08 49.6181 29.734 49.4021 30.394ZM45.8021 37L49.7981 25.192H51.4901L55.4861 37H53.8841L52.7681 33.4H48.4661L47.3321 37H45.8021ZM62.8291 37V25.192H65.7811C67.6051 25.192 68.9911 25.696 69.9391 26.704C70.8871 27.712 71.3611 29.158 71.3611 31.042C71.3611 31.978 71.2411 32.818 71.0011 33.562C70.7611 34.294 70.4071 34.918 69.9391 35.434C69.4711 35.938 68.8951 36.328 68.2111 36.604C67.5271 36.868 66.7411 37 65.8531 37H62.8291ZM64.3231 35.776H65.6731C67.0531 35.776 68.0851 35.362 68.7691 34.534C69.4651 33.706 69.8131 32.542 69.8131 31.042C69.8131 29.542 69.4651 28.396 68.7691 27.604C68.0851 26.812 67.0531 26.416 65.6731 26.416H64.3231V35.776ZM79.5734 37V25.192H81.0674V37H79.5734ZM93.2479 37.216C92.4199 37.216 91.6519 37.06 90.9439 36.748C90.2359 36.436 89.6239 36.01 89.1079 35.47L90.0079 34.426C90.4279 34.87 90.9199 35.23 91.4839 35.506C92.0599 35.77 92.6539 35.902 93.2659 35.902C94.0459 35.902 94.6519 35.728 95.0839 35.38C95.5159 35.02 95.7319 34.552 95.7319 33.976C95.7319 33.676 95.6779 33.424 95.5699 33.22C95.4739 33.004 95.3359 32.824 95.1559 32.68C94.9879 32.524 94.7839 32.386 94.5439 32.266C94.3039 32.146 94.0459 32.02 93.7699 31.888L92.0779 31.15C91.8019 31.03 91.5199 30.886 91.2319 30.718C90.9439 30.55 90.6859 30.346 90.4579 30.106C90.2299 29.866 90.0439 29.584 89.8999 29.26C89.7559 28.924 89.6839 28.54 89.6839 28.108C89.6839 27.664 89.7739 27.25 89.9539 26.866C90.1459 26.482 90.4039 26.152 90.7279 25.876C91.0639 25.588 91.4539 25.366 91.8979 25.21C92.3539 25.054 92.8519 24.976 93.3919 24.976C94.0999 24.976 94.7539 25.114 95.3539 25.39C95.9539 25.654 96.4639 26.002 96.8839 26.434L96.0739 27.406C95.7139 27.058 95.3119 26.788 94.8679 26.596C94.4359 26.392 93.9439 26.29 93.3919 26.29C92.7319 26.29 92.1979 26.446 91.7899 26.758C91.3939 27.058 91.1959 27.478 91.1959 28.018C91.1959 28.306 91.2499 28.552 91.3579 28.756C91.4779 28.948 91.6339 29.122 91.8259 29.278C92.0179 29.422 92.2279 29.554 92.4559 29.674C92.6839 29.782 92.9179 29.884 93.1579 29.98L94.8319 30.7C95.1679 30.844 95.4859 31.012 95.7859 31.204C96.0859 31.384 96.3439 31.6 96.5599 31.852C96.7759 32.092 96.9439 32.38 97.0639 32.716C97.1959 33.04 97.2619 33.418 97.2619 33.85C97.2619 34.318 97.1659 34.756 96.9739 35.164C96.7939 35.572 96.5299 35.932 96.1819 36.244C95.8339 36.544 95.4139 36.784 94.9219 36.964C94.4299 37.132 93.8719 37.216 93.2479 37.216ZM109.613 37.216C108.869 37.216 108.185 37.072 107.561 36.784C106.949 36.496 106.421 36.088 105.977 35.56C105.533 35.02 105.185 34.372 104.933 33.616C104.693 32.848 104.573 31.99 104.573 31.042C104.573 30.094 104.693 29.248 104.933 28.504C105.185 27.748 105.533 27.112 105.977 26.596C106.421 26.068 106.949 25.666 107.561 25.39C108.185 25.114 108.869 24.976 109.613 24.976C110.357 24.976 111.035 25.12 111.647 25.408C112.271 25.684 112.805 26.086 113.249 26.614C113.705 27.13 114.053 27.766 114.293 28.522C114.545 29.266 114.671 30.106 114.671 31.042C114.671 31.99 114.545 32.848 114.293 33.616C114.053 34.372 113.705 35.02 113.249 35.56C112.805 36.088 112.271 36.496 111.647 36.784C111.035 37.072 110.357 37.216 109.613 37.216ZM109.613 35.902C110.141 35.902 110.615 35.788 111.035 35.56C111.467 35.332 111.833 35.008 112.133 34.588C112.445 34.156 112.685 33.646 112.853 33.058C113.021 32.458 113.105 31.786 113.105 31.042C113.105 30.31 113.021 29.65 112.853 29.062C112.685 28.474 112.445 27.976 112.133 27.568C111.833 27.16 111.467 26.848 111.035 26.632C110.615 26.404 110.141 26.29 109.613 26.29C109.085 26.29 108.605 26.404 108.173 26.632C107.753 26.848 107.387 27.16 107.075 27.568C106.775 27.976 106.541 28.474 106.373 29.062C106.205 29.65 106.121 30.31 106.121 31.042C106.121 31.786 106.205 32.458 106.373 33.058C106.541 33.646 106.775 34.156 107.075 34.588C107.387 35.008 107.753 35.332 108.173 35.56C108.605 35.788 109.085 35.902 109.613 35.902ZM122.88 37V25.192H124.428L128.694 32.608L129.972 35.056H130.044C130.008 34.456 129.966 33.838 129.918 33.202C129.882 32.554 129.864 31.918 129.864 31.294V25.192H131.286V37H129.738L125.454 29.566L124.176 27.136H124.104C124.152 27.736 124.194 28.348 124.23 28.972C124.278 29.584 124.302 30.202 124.302 30.826V37H122.88ZM33.084 64.216C32.34 64.216 31.656 64.078 31.032 63.802C30.408 63.526 29.862 63.13 29.394 62.614C28.938 62.086 28.578 61.444 28.314 60.688C28.062 59.92 27.936 59.056 27.936 58.096C27.936 57.148 28.068 56.296 28.332 55.54C28.596 54.784 28.962 54.142 29.43 53.614C29.898 53.086 30.45 52.684 31.086 52.408C31.722 52.12 32.418 51.976 33.174 51.976C33.894 51.976 34.524 52.126 35.064 52.426C35.616 52.714 36.066 53.05 36.414 53.434L35.604 54.406C35.292 54.07 34.938 53.8 34.542 53.596C34.146 53.392 33.696 53.29 33.192 53.29C32.628 53.29 32.118 53.404 31.662 53.632C31.206 53.848 30.816 54.166 30.492 54.586C30.168 54.994 29.916 55.492 29.736 56.08C29.568 56.668 29.484 57.328 29.484 58.06C29.484 58.804 29.568 59.476 29.736 60.076C29.916 60.664 30.162 61.168 30.474 61.588C30.786 62.008 31.164 62.332 31.608 62.56C32.064 62.788 32.574 62.902 33.138 62.902C33.714 62.902 34.218 62.788 34.65 62.56C35.082 62.32 35.49 61.99 35.874 61.57L36.702 62.506C36.234 63.046 35.706 63.466 35.118 63.766C34.53 64.066 33.852 64.216 33.084 64.216ZM46.6072 57.394L46.0492 59.194H49.5952L49.0372 57.394C48.8212 56.734 48.6172 56.08 48.4252 55.432C48.2332 54.772 48.0412 54.1 47.8492 53.416H47.7772C47.5972 54.1 47.4112 54.772 47.2192 55.432C47.0272 56.08 46.8232 56.734 46.6072 57.394ZM43.0072 64L47.0032 52.192H48.6952L52.6912 64H51.0892L49.9732 60.4H45.6712L44.5372 64H43.0072ZM60.0342 64V52.192H63.7242C64.3242 52.192 64.8762 52.252 65.3802 52.372C65.8962 52.48 66.3342 52.666 66.6942 52.93C67.0662 53.194 67.3542 53.536 67.5582 53.956C67.7622 54.376 67.8642 54.892 67.8642 55.504C67.8642 56.428 67.6242 57.166 67.1442 57.718C66.6642 58.27 66.0162 58.648 65.2002 58.852L68.2062 64H66.5142L63.6702 59.014H61.5282V64H60.0342ZM61.5282 57.79H63.5082C64.4322 57.79 65.1402 57.604 65.6322 57.232C66.1242 56.848 66.3702 56.272 66.3702 55.504C66.3702 54.724 66.1242 54.178 65.6322 53.866C65.1402 53.554 64.4322 53.398 63.5082 53.398H61.5282V57.79ZM75.9523 64V52.192H77.7523L80.0203 58.492C80.1643 58.9 80.3023 59.314 80.4343 59.734C80.5783 60.142 80.7223 60.55 80.8663 60.958H80.9383C81.0823 60.55 81.2143 60.142 81.3343 59.734C81.4663 59.314 81.6043 58.9 81.7483 58.492L83.9803 52.192H85.7983V64H84.3943V57.502C84.3943 56.974 84.4183 56.392 84.4663 55.756C84.5143 55.12 84.5563 54.538 84.5923 54.01H84.5203L83.5843 56.692L81.3523 62.812H80.3623L78.1303 56.692L77.1943 54.01H77.1223C77.1583 54.538 77.1943 55.12 77.2303 55.756C77.2783 56.392 77.3023 56.974 77.3023 57.502V64H75.9523ZM96.7344 57.394L96.1764 59.194H99.7224L99.1644 57.394C98.9484 56.734 98.7444 56.08 98.5524 55.432C98.3604 54.772 98.1684 54.1 97.9764 53.416H97.9044C97.7244 54.1 97.5384 54.772 97.3464 55.432C97.1544 56.08 96.9504 56.734 96.7344 57.394ZM93.1344 64L97.1304 52.192H98.8224L102.818 64H101.216L100.1 60.4H95.7984L94.6644 64H93.1344ZM110.161 64V52.192H111.709L115.975 59.608L117.253 62.056H117.325C117.289 61.456 117.247 60.838 117.199 60.202C117.163 59.554 117.145 58.918 117.145 58.294V52.192H118.567V64H117.019L112.735 56.566L111.457 54.136H111.385C111.433 54.736 111.475 55.348 111.511 55.972C111.559 56.584 111.583 57.202 111.583 57.826V64H110.161Z" fill="black"/>
</svg>
