<svg width="190" height="34" viewBox="0 0 190 34" fill="none" xmlns="http://www.w3.org/2000/svg">
<path d="M55.293 23.18C54.793 23.18 54.323 23.11 53.883 22.97C53.453 22.82 53.078 22.58 52.758 22.25C52.448 21.91 52.203 21.47 52.023 20.93C51.843 20.39 51.753 19.725 51.753 18.935V13.16H52.998V18.965C52.998 19.555 53.058 20.05 53.178 20.45C53.298 20.85 53.458 21.17 53.658 21.41C53.868 21.65 54.113 21.825 54.393 21.935C54.673 22.035 54.973 22.085 55.293 22.085C55.623 22.085 55.928 22.035 56.208 21.935C56.488 21.825 56.733 21.65 56.943 21.41C57.153 21.17 57.318 20.85 57.438 20.45C57.558 20.05 57.618 19.555 57.618 18.965V13.16H58.818V18.935C58.818 19.725 58.728 20.39 58.548 20.93C58.368 21.47 58.118 21.91 57.798 22.25C57.488 22.58 57.118 22.82 56.688 22.97C56.258 23.11 55.793 23.18 55.293 23.18ZM64.9195 23L67.7845 17.915L65.1145 13.16H66.4945L67.8295 15.68C67.9595 15.91 68.0795 16.135 68.1895 16.355C68.3095 16.565 68.4445 16.815 68.5945 17.105H68.6545C68.7945 16.815 68.9145 16.565 69.0145 16.355C69.1245 16.135 69.2395 15.91 69.3595 15.68L70.6645 13.16H71.9845L69.2995 17.975L72.1645 23H70.7845L69.3445 20.345C69.2145 20.105 69.0795 19.86 68.9395 19.61C68.8095 19.35 68.6645 19.07 68.5045 18.77H68.4445C68.3045 19.07 68.1695 19.35 68.0395 19.61C67.9095 19.86 67.7845 20.105 67.6645 20.345L66.2395 23H64.9195ZM77.26 25.4L81.265 12.35H82.165L78.16 25.4H77.26ZM91.9241 23.18C91.4241 23.18 90.9541 23.11 90.5141 22.97C90.0841 22.82 89.7091 22.58 89.3891 22.25C89.0791 21.91 88.8341 21.47 88.6541 20.93C88.4741 20.39 88.3841 19.725 88.3841 18.935V13.16H89.6291V18.965C89.6291 19.555 89.6891 20.05 89.8091 20.45C89.9291 20.85 90.0891 21.17 90.2891 21.41C90.4991 21.65 90.7441 21.825 91.0241 21.935C91.3041 22.035 91.6041 22.085 91.9241 22.085C92.2541 22.085 92.5591 22.035 92.8391 21.935C93.1191 21.825 93.3641 21.65 93.5741 21.41C93.7841 21.17 93.9491 20.85 94.0691 20.45C94.1891 20.05 94.2491 19.555 94.2491 18.965V13.16H95.4491V18.935C95.4491 19.725 95.3591 20.39 95.1791 20.93C94.9991 21.47 94.7491 21.91 94.4291 22.25C94.1191 22.58 93.7491 22.82 93.3191 22.97C92.8891 23.11 92.4241 23.18 91.9241 23.18ZM102.822 23V13.16H104.067V23H102.822ZM119.215 23V13.16H121.675C123.195 13.16 124.35 13.58 125.14 14.42C125.93 15.26 126.325 16.465 126.325 18.035C126.325 18.815 126.225 19.515 126.025 20.135C125.825 20.745 125.53 21.265 125.14 21.695C124.75 22.115 124.27 22.44 123.7 22.67C123.13 22.89 122.475 23 121.735 23H119.215ZM120.46 21.98H121.585C122.735 21.98 123.595 21.635 124.165 20.945C124.745 20.255 125.035 19.285 125.035 18.035C125.035 16.785 124.745 15.83 124.165 15.17C123.595 14.51 122.735 14.18 121.585 14.18H120.46V21.98ZM133.169 23V13.16H138.839V14.21H134.414V17.3H138.149V18.365H134.414V21.935H138.989V23H133.169ZM148.534 23.18C147.844 23.18 147.204 23.05 146.614 22.79C146.024 22.53 145.514 22.175 145.084 21.725L145.834 20.855C146.184 21.225 146.594 21.525 147.064 21.755C147.544 21.975 148.039 22.085 148.549 22.085C149.199 22.085 149.704 21.94 150.064 21.65C150.424 21.35 150.604 20.96 150.604 20.48C150.604 20.23 150.559 20.02 150.469 19.85C150.389 19.67 150.274 19.52 150.124 19.4C149.984 19.27 149.814 19.155 149.614 19.055C149.414 18.955 149.199 18.85 148.969 18.74L147.559 18.125C147.329 18.025 147.094 17.905 146.854 17.765C146.614 17.625 146.399 17.455 146.209 17.255C146.019 17.055 145.864 16.82 145.744 16.55C145.624 16.27 145.564 15.95 145.564 15.59C145.564 15.22 145.639 14.875 145.789 14.555C145.949 14.235 146.164 13.96 146.434 13.73C146.714 13.49 147.039 13.305 147.409 13.175C147.789 13.045 148.204 12.98 148.654 12.98C149.244 12.98 149.789 13.095 150.289 13.325C150.789 13.545 151.214 13.835 151.564 14.195L150.889 15.005C150.589 14.715 150.254 14.49 149.884 14.33C149.524 14.16 149.114 14.075 148.654 14.075C148.104 14.075 147.659 14.205 147.319 14.465C146.989 14.715 146.824 15.065 146.824 15.515C146.824 15.755 146.869 15.96 146.959 16.13C147.059 16.29 147.189 16.435 147.349 16.565C147.509 16.685 147.684 16.795 147.874 16.895C148.064 16.985 148.259 17.07 148.459 17.15L149.854 17.75C150.134 17.87 150.399 18.01 150.649 18.17C150.899 18.32 151.114 18.5 151.294 18.71C151.474 18.91 151.614 19.15 151.714 19.43C151.824 19.7 151.879 20.015 151.879 20.375C151.879 20.765 151.799 21.13 151.639 21.47C151.489 21.81 151.269 22.11 150.979 22.37C150.689 22.62 150.339 22.82 149.929 22.97C149.519 23.11 149.054 23.18 148.534 23.18ZM158.542 23V13.16H159.787V23H158.542ZM171.077 23.18C170.427 23.18 169.827 23.065 169.277 22.835C168.737 22.605 168.272 22.275 167.882 21.845C167.492 21.405 167.187 20.87 166.967 20.24C166.747 19.6 166.637 18.88 166.637 18.08C166.637 17.29 166.747 16.58 166.967 15.95C167.197 15.32 167.512 14.785 167.912 14.345C168.312 13.905 168.787 13.57 169.337 13.34C169.897 13.1 170.502 12.98 171.152 12.98C171.492 12.98 171.802 13.015 172.082 13.085C172.372 13.155 172.632 13.25 172.862 13.37C173.102 13.48 173.312 13.61 173.492 13.76C173.682 13.9 173.847 14.045 173.987 14.195L173.297 15.005C173.047 14.745 172.757 14.525 172.427 14.345C172.097 14.165 171.682 14.075 171.182 14.075C170.682 14.075 170.232 14.17 169.832 14.36C169.432 14.54 169.092 14.805 168.812 15.155C168.532 15.495 168.312 15.91 168.152 16.4C168.002 16.89 167.927 17.44 167.927 18.05C167.927 18.67 167.997 19.23 168.137 19.73C168.287 20.22 168.497 20.64 168.767 20.99C169.047 21.34 169.387 21.61 169.787 21.8C170.197 21.99 170.667 22.085 171.197 22.085C171.547 22.085 171.877 22.035 172.187 21.935C172.507 21.825 172.767 21.68 172.967 21.5V18.935H170.882V17.9H174.107V22.04C173.787 22.37 173.367 22.645 172.847 22.865C172.327 23.075 171.737 23.18 171.077 23.18ZM181.19 23V13.16H182.48L186.035 19.34L187.1 21.38H187.16C187.13 20.88 187.095 20.365 187.055 19.835C187.025 19.295 187.01 18.765 187.01 18.245V13.16H188.195V23H186.905L183.335 16.805L182.27 14.78H182.21C182.25 15.28 182.285 15.79 182.315 16.31C182.355 16.82 182.375 17.335 182.375 17.855V23H181.19Z" fill="black"/>
<rect width="34" height="34" fill="black"/>
<path d="M4.42001 23.8567V10.2567H6.53335L9.19618 17.5128C9.36523 17.9827 9.52726 18.4595 9.68223 18.9433C9.85131 19.4132 10.0204 19.8831 10.1894 20.353H10.274C10.443 19.8831 10.598 19.4132 10.7389 18.9433C10.8939 18.4595 11.0559 17.9827 11.225 17.5128L13.8455 10.2567H15.98V23.8567H14.3316V16.3725C14.3316 15.7644 14.3598 15.0941 14.4161 14.3615C14.4725 13.629 14.5218 12.9587 14.5641 12.3506H14.4795L13.3806 15.4396L10.76 22.4884H9.59772L6.97715 15.4396L5.87822 12.3506H5.79369C5.83595 12.9587 5.87822 13.629 5.92049 14.3615C5.97684 15.0941 6.00502 15.7644 6.00502 16.3725V23.8567H4.42001Z" fill="white"/>
<path d="M25.2298 24.1967C24.3353 24.1967 23.5128 24.0357 22.7626 23.7137C22.0123 23.3917 21.3558 22.9297 20.7931 22.3277C20.2448 21.7117 19.8119 20.9627 19.4945 20.0807C19.1915 19.1847 19.04 18.1767 19.04 17.0567C19.04 15.9507 19.1987 14.9567 19.5161 14.0747C19.8336 13.1927 20.2736 12.4437 20.8364 11.8277C21.399 11.2117 22.0628 10.7427 22.8275 10.4207C23.5922 10.0847 24.429 9.91666 25.338 9.91666C26.2037 9.91666 26.9612 10.0917 27.6105 10.4417C28.2742 10.7777 28.8153 11.1697 29.2337 11.6177L28.2598 12.7517C27.8847 12.3597 27.459 12.0447 26.9829 11.8067C26.5068 11.5687 25.9657 11.4497 25.3597 11.4497C24.6815 11.4497 24.0683 11.5827 23.52 11.8487C22.9717 12.1007 22.5028 12.4717 22.1133 12.9617C21.7237 13.4377 21.4207 14.0187 21.2043 14.7047C21.0023 15.3907 20.9013 16.1607 20.9013 17.0147C20.9013 17.8827 21.0023 18.6667 21.2043 19.3667C21.4207 20.0527 21.7165 20.6407 22.0916 21.1307C22.4668 21.6207 22.9213 21.9987 23.4551 22.2647C24.0034 22.5307 24.6166 22.6637 25.2947 22.6637C25.9873 22.6637 26.5933 22.5307 27.1127 22.2647C27.6322 21.9847 28.1227 21.5997 28.5844 21.1097L29.58 22.2017C29.0173 22.8317 28.3824 23.3217 27.6754 23.6717C26.9684 24.0217 26.1533 24.1967 25.2298 24.1967Z" fill="white"/>
</svg>
